<?xml version="1.0" standalone="no"?>
<!DOCTYPE svg PUBLIC "-//W3C//DTD SVG 20010904//EN"
 "http://www.w3.org/TR/2001/REC-SVG-20010904/DTD/svg10.dtd">
<svg version="1.0" xmlns="http://www.w3.org/2000/svg"
 width="1000.000000pt" height="1000.000000pt" viewBox="0 0 1000.000000 1000.000000"
 preserveAspectRatio="xMidYMid meet">
<metadata>
Created by potrace 1.16, written by Peter Selinger 2001-2019
</metadata>
<g transform="translate(0.000000,1000.000000) scale(0.100000,-0.100000)"
fill="#000000" stroke="none">
<path d="M5275 9644 c-16 -3 -88 -19 -160 -36 -165 -39 -237 -40 -369 -4 l-98
27 -87 -42 c-47 -23 -124 -54 -171 -69 -46 -16 -86 -32 -87 -37 -2 -5 6 -22
17 -36 16 -20 31 -27 58 -27 20 -1 48 -7 61 -14 15 -9 47 -11 95 -8 54 3 80 0
104 -12 17 -9 37 -13 45 -10 16 6 47 -21 47 -41 0 -7 12 -38 26 -70 30 -66 29
-120 -5 -166 -12 -16 -21 -40 -21 -53 0 -37 -68 -83 -225 -153 -156 -69 -190
-96 -211 -169 -8 -29 -14 -62 -13 -71 1 -10 -4 -37 -11 -61 l-13 -43 38 -39
c21 -22 37 -41 34 -44 -2 -2 -27 -15 -55 -29 -29 -15 -81 -48 -116 -75 l-64
-50 -21 24 c-15 17 -32 24 -58 24 -75 0 -137 -65 -137 -144 0 -67 27 -107 85
-127 l47 -16 -42 -34 c-24 -18 -64 -53 -91 -78 -26 -24 -49 -42 -51 -40 -2 2
-13 23 -25 46 -24 48 -67 82 -114 90 -63 10 -157 -58 -157 -113 0 -29 6 -28
-64 -4 -124 42 -325 50 -451 16 -67 -17 -135 -48 -189 -85 -51 -35 -56 -37
-56 -16 0 27 -38 92 -69 118 -91 76 -243 53 -314 -49 -48 -69 -49 -167 -2
-218 l25 -27 -27 -77 c-38 -110 -44 -272 -14 -371 12 -38 21 -71 21 -73 0 -2
-30 11 -67 29 -328 161 -723 -87 -723 -455 l0 -74 -32 9 c-123 30 -247 -46
-285 -176 -22 -77 -13 -196 21 -281 72 -177 252 -330 429 -364 31 -6 57 -14
57 -18 0 -5 -35 -43 -78 -86 -218 -216 -339 -556 -303 -851 14 -114 32 -176
95 -328 57 -138 61 -195 19 -257 -68 -96 1 -230 141 -276 25 -8 64 -11 107 -7
152 13 255 114 247 242 -1 30 0 54 4 53 3 -2 21 -22 40 -44 18 -23 75 -89 126
-147 50 -59 92 -109 92 -112 0 -3 -19 5 -43 17 -32 17 -59 22 -112 23 -61 0
-78 -5 -133 -34 -227 -123 -256 -417 -58 -598 56 -52 136 -95 210 -115 l46
-12 0 -55 c0 -104 64 -186 205 -264 56 -31 80 -50 80 -63 0 -14 -8 -20 -32
-22 -29 -3 -41 5 -95 60 -95 95 -180 197 -201 239 -40 82 -164 165 -260 176
-31 3 -70 17 -97 33 -25 15 -79 40 -120 55 -41 15 -94 41 -118 56 -24 16 -45
29 -48 29 -3 0 -3 -12 0 -28 4 -15 10 -113 15 -217 8 -170 11 -196 33 -245 24
-53 61 -98 104 -127 15 -9 23 -28 27 -63 7 -62 27 -100 78 -151 45 -45 46 -49
19 -49 -68 0 -185 -101 -209 -181 -33 -110 -14 -255 46 -358 68 -117 187 -207
333 -253 65 -20 96 -23 235 -23 88 0 180 4 205 8 l44 8 -24 -26 c-21 -22 -25
-37 -25 -85 0 -53 4 -64 47 -126 310 -452 814 -823 1374 -1012 345 -116 655
-169 1050 -179 298 -8 524 16 788 83 556 141 1195 486 1550 838 167 165 236
279 236 390 0 65 -14 84 -114 164 -152 120 -207 193 -316 413 -39 79 -80 158
-91 175 -53 86 -168 66 -343 -60 -49 -36 -84 -55 -95 -51 -9 3 -38 26 -65 50
l-50 44 60 68 c116 131 265 342 315 446 13 26 26 47 30 47 4 0 10 -16 13 -34
11 -58 63 -174 110 -244 39 -59 46 -79 61 -167 72 -427 349 -742 733 -831 91
-21 284 -21 359 1 100 29 174 74 248 149 135 136 192 310 150 453 -24 81 -78
149 -154 192 -11 7 -9 18 12 62 14 30 29 74 32 99 6 36 16 52 55 87 28 25 57
64 71 95 21 47 24 68 24 178 0 81 -7 162 -19 228 l-19 104 -29 -31 c-37 -39
-101 -72 -198 -100 -128 -38 -164 -52 -204 -83 -21 -17 -56 -35 -79 -40 -49
-11 -91 -39 -114 -78 -23 -40 -36 -38 -27 2 4 18 8 46 8 63 1 27 6 31 61 50
279 98 442 329 381 539 -42 143 -137 219 -276 219 -71 0 -146 -26 -188 -66
-75 -69 -84 -212 -18 -266 9 -8 16 -20 16 -28 0 -23 -87 -108 -130 -128 -35
-16 -47 -17 -91 -7 -28 7 -61 12 -75 12 -13 0 -24 3 -24 6 0 15 549 740 557
737 3 -2 7 -23 9 -47 11 -140 112 -226 265 -226 72 0 117 19 162 69 58 64 63
158 12 232 -33 47 -33 50 30 279 66 243 86 355 86 495 0 103 -3 132 -26 205
-78 244 -237 441 -454 558 l-72 39 113 6 c195 11 340 63 447 162 100 94 148
215 138 351 -12 167 -106 277 -236 277 -33 0 -71 -7 -91 -16 -18 -10 -35 -15
-37 -14 -2 2 2 28 8 57 17 78 6 232 -20 301 -63 166 -183 254 -363 266 -121 9
-259 -25 -353 -87 -22 -14 -45 -29 -52 -33 -7 -4 1 21 18 56 64 137 72 268 28
450 l-22 92 34 54 c27 42 33 64 33 105 0 133 -126 223 -261 185 -67 -18 -147
-97 -164 -161 -7 -27 -17 -48 -22 -48 -5 0 -22 9 -37 20 -45 32 -132 68 -186
76 -27 4 -154 8 -283 8 l-234 1 -12 47 c-15 59 -29 76 -83 100 -51 23 -107 18
-146 -13 -32 -25 -33 -25 -55 13 l-20 31 27 35 c28 37 40 119 28 187 -9 44
-72 113 -113 121 -20 4 -44 22 -69 52 -21 26 -49 55 -61 65 -29 24 -29 37 0
37 30 0 57 29 57 61 0 14 -18 62 -39 107 -48 98 -133 192 -173 192 -17 0 -42
14 -69 40 -49 46 -47 52 35 99 61 34 106 83 106 115 0 13 -15 36 -35 55 -47
42 -44 54 8 28 58 -29 155 -30 193 -1 35 26 39 38 19 58 -13 13 -28 15 -64 10
-25 -3 -66 -1 -89 6 -35 9 -48 20 -72 58 -84 136 -114 161 -235 193 -78 20
-270 33 -340 23z m325 -44 c109 -27 150 -56 213 -152 58 -88 88 -108 165 -108
52 0 75 -15 51 -32 -8 -5 -43 -7 -79 -5 -87 5 -140 33 -174 92 -15 25 -34 45
-43 45 -15 0 -15 -1 0 -18 9 -10 28 -45 42 -77 15 -33 40 -74 57 -92 39 -41
33 -73 -23 -111 -22 -15 -60 -42 -85 -59 -47 -35 -68 -40 -80 -22 -8 13 33 48
55 49 19 0 78 46 92 71 9 18 6 26 -16 49 -15 16 -41 34 -57 41 -17 7 -37 28
-49 51 -20 39 -20 39 -65 32 -37 -5 -51 -3 -73 14 -15 11 -46 23 -70 27 -25 4
-56 19 -76 36 -44 39 -100 39 -200 -1 -78 -31 -152 -39 -173 -18 -8 8 -15 8
-24 1 -7 -6 -26 -13 -41 -17 -37 -9 -43 -30 -18 -62 16 -21 18 -30 10 -46 -9
-16 -7 -26 9 -47 19 -26 19 -26 -1 -68 -15 -31 -27 -43 -50 -47 -16 -3 -51
-22 -78 -41 -61 -44 -72 -29 -19 26 22 23 40 51 40 63 0 20 -1 20 -20 -4 l-20
-25 0 45 c0 29 -9 62 -25 92 -14 26 -25 63 -25 83 0 43 -32 90 -62 90 -21 0
-47 29 -37 40 3 3 20 0 37 -6 50 -17 62 -4 14 16 -25 10 -41 23 -38 30 3 8 -4
10 -20 7 -13 -2 -22 -7 -20 -11 11 -17 -15 -31 -89 -51 -44 -12 -87 -27 -95
-35 -24 -21 -110 -1 -110 25 0 5 30 17 68 29 37 11 104 38 150 61 46 22 92 40
102 40 11 0 65 -12 121 -26 119 -31 190 -29 329 7 202 53 337 58 500 19z
m-285 -309 c3 -5 31 -15 63 -21 31 -6 67 -14 80 -17 18 -4 21 -2 16 12 -6 15
-2 16 37 10 70 -11 79 -15 85 -42 10 -38 -60 -103 -110 -103 -24 0 -40 -7 -53
-24 -29 -36 -85 -41 -202 -17 -56 12 -134 24 -175 28 -103 8 -105 11 -76 75
13 29 25 55 27 57 1 2 16 -1 32 -7 39 -14 137 1 162 24 16 14 24 15 44 6 21
-10 26 -9 35 8 12 21 25 26 35 11z m-262 -202 c65 -5 128 -14 140 -19 l22 -9
-22 0 c-53 -2 -11 -48 58 -65 27 -6 44 -30 33 -47 -3 -5 -61 -7 -138 -3 -150
7 -213 -4 -325 -56 -35 -17 -80 -30 -100 -30 -46 0 -133 -41 -183 -85 -26 -24
-48 -35 -69 -35 -33 0 -77 -20 -128 -59 l-34 -26 6 40 c11 67 32 85 205 170
89 44 184 98 210 121 51 43 128 98 152 107 22 8 44 8 173 -4z m-182 -659 c-2
-8 -12 -44 -23 -80 -10 -36 -19 -99 -21 -140 -2 -87 -11 -84 133 -56 160 30
265 18 276 -32 9 -43 76 -236 86 -249 5 -6 8 -31 6 -55 l-3 -43 -50 -3 c-65
-4 -78 -16 -71 -63 3 -21 2 -40 -3 -43 -12 -8 -25 67 -16 94 3 11 5 20 3 20
-25 0 -390 -133 -436 -159 -15 -8 -16 -36 -13 -293 1 -155 6 -287 11 -291 4
-5 68 12 141 36 322 108 417 132 412 102 -1 -5 -16 -14 -35 -19 -180 -48 -475
-162 -518 -201 -24 -22 -37 -19 -57 13 -9 15 -36 48 -61 73 -38 41 -43 49 -33
68 15 26 28 27 36 1 4 -11 18 -34 32 -50 27 -33 50 -41 34 -12 -6 11 -6 49 1
102 10 85 3 365 -11 418 -6 22 -26 37 -126 87 -98 49 -125 68 -149 101 -35 52
-46 123 -21 147 23 24 35 21 35 -8 0 -28 33 -48 136 -83 127 -43 163 -39 494
58 41 12 89 24 107 27 33 5 61 28 49 40 -3 4 -12 1 -18 -5 -20 -20 -26 -14
-33 41 -3 28 -9 65 -12 81 -3 19 -2 26 6 22 6 -4 11 0 11 9 0 11 -6 15 -17 11
-10 -3 -85 -17 -168 -31 -82 -15 -177 -31 -211 -37 -57 -10 -63 -9 -115 17
-65 33 -179 105 -179 112 0 3 5 23 11 44 10 32 17 38 43 41 29 3 31 6 37 52 4
37 12 55 33 73 33 28 83 28 100 1 12 -19 -6 -164 -24 -199 l-11 -20 -35 20
c-39 23 -44 25 -44 14 0 -13 65 -53 84 -53 26 0 46 59 67 194 10 66 23 122 28
126 6 3 32 3 58 0 36 -4 47 -9 44 -20z m1047 -55 c6 -14 30 -45 53 -70 44 -47
77 -57 100 -29 11 13 9 15 -16 12 -22 -2 -32 3 -44 24 -14 25 -14 29 5 55 27
36 62 40 98 12 56 -44 73 -135 35 -183 -86 -110 -243 -53 -305 111 l-18 46 30
23 c37 30 48 30 62 -1z m-864 -6 c25 -19 26 -26 25 -93 l-1 -73 -72 -10 c-65
-9 -73 -9 -93 10 -19 17 -22 27 -17 61 12 86 24 114 47 119 52 10 86 6 111
-14z m-716 -27 l23 -18 -51 -52 c-68 -71 -166 -225 -269 -425 -15 -29 -98
-130 -111 -135 -4 -1 -5 28 -2 66 2 41 0 84 -8 106 l-12 36 57 51 c30 29 92
97 136 153 169 212 189 236 202 236 6 0 22 -8 35 -18z m-278 -33 c11 -20 3
-41 -25 -61 -5 -4 -6 -10 -2 -14 4 -4 32 17 62 46 61 60 67 59 29 -5 -30 -53
-97 -115 -122 -115 -30 0 -64 44 -65 85 -1 29 5 43 27 61 34 30 81 32 96 3z
m360 -5 c0 -3 -17 -26 -39 -52 -127 -154 -230 -374 -231 -496 0 -20 -129 -238
-190 -321 -86 -117 -169 -175 -249 -175 -53 0 -95 21 -118 60 -20 35 -28 37
-43 10 -25 -46 56 -129 135 -137 76 -9 176 34 258 112 42 40 32 10 -14 -40
-56 -61 -131 -95 -209 -95 -98 0 -158 33 -191 105 -36 79 -16 198 44 264 31
33 101 61 154 61 121 0 139 -150 25 -206 -37 -19 -37 -19 -9 -22 35 -4 80 28
101 72 20 43 20 79 0 118 -15 29 -15 32 2 41 11 5 55 46 99 91 60 61 94 107
134 181 110 204 174 305 232 369 43 46 68 66 85 66 13 0 24 -3 24 -6z m1347
-28 c18 -20 48 -83 76 -157 60 -164 110 -286 143 -351 41 -82 112 -185 148
-215 22 -19 36 -40 40 -65 9 -51 43 -87 87 -94 28 -5 41 -1 67 21 18 15 32 34
32 42 0 11 -7 8 -25 -11 -29 -31 -63 -33 -99 -5 -37 29 -36 81 3 120 24 24 38
29 76 29 50 0 108 -25 140 -60 l19 -21 -29 7 -29 7 24 -38 c43 -70 22 -164
-48 -211 -43 -29 -144 -25 -208 8 -103 54 -225 189 -322 358 l-49 85 5 86 c6
122 -31 249 -110 380 -30 49 -36 87 -16 107 20 20 45 13 75 -22z m-120 -136
c70 -140 90 -221 76 -307 -6 -35 -19 -75 -28 -89 -42 -64 -114 -52 -127 21 -6
37 -4 42 29 71 l36 30 -13 70 c-14 81 -56 227 -77 267 -17 34 -9 49 25 45 23
-3 34 -18 79 -108z m-123 33 c4 -9 4 -18 1 -21 -3 -3 -5 0 -5 6 0 7 -7 12 -16
12 -11 0 -14 -5 -10 -16 3 -9 9 -27 12 -40 8 -30 20 -31 30 -1 5 17 12 4 30
-62 13 -47 26 -108 29 -136 6 -48 5 -53 -19 -68 -35 -24 -38 -22 -34 21 l3 37
-46 3 c-29 2 -62 -4 -94 -18 -26 -11 -51 -17 -55 -13 -4 4 -26 63 -48 130 -31
95 -37 124 -28 132 21 17 211 61 233 53 6 -2 14 -11 17 -19z m-869 -167 c17
-18 41 -37 54 -41 13 -4 93 1 178 11 168 19 186 17 191 -30 2 -16 9 -26 20
-26 10 0 13 -3 6 -10 -15 -15 -364 -101 -414 -101 -48 -1 -192 41 -225 64 -18
14 -18 16 0 103 30 146 23 140 97 98 35 -20 77 -50 93 -68z m1715 38 c44 -18
70 -55 70 -99 0 -30 -49 -85 -75 -85 -9 0 -13 -5 -10 -10 8 -13 41 -4 75 20
22 15 55 18 267 19 326 2 394 -14 503 -121 150 -147 211 -398 141 -580 -78
-203 -310 -356 -566 -375 -83 -6 -217 20 -346 67 -242 87 -502 295 -608 485
l-23 40 39 -45 c328 -387 660 -537 1003 -454 147 36 275 135 336 261 26 53 29
68 29 168 0 100 -2 115 -27 160 -30 58 -97 124 -158 155 -91 47 -179 60 -379
58 -172 -2 -190 0 -244 21 -93 37 -139 120 -103 189 21 40 20 42 -8 42 -83 0
-102 -161 -29 -242 30 -34 5 -30 -29 5 -56 56 -72 142 -42 229 22 66 61 96
136 107 4 1 26 -6 48 -15z m-2639 -51 c40 -34 59 -79 59 -138 0 -89 -55 -162
-157 -211 -70 -33 -201 -46 -221 -22 -11 13 -3 16 60 20 142 10 254 78 278
169 10 35 9 50 -5 86 -15 38 -46 73 -66 73 -16 0 -17 -46 -2 -71 26 -44 4 -84
-58 -106 -27 -10 -49 -23 -49 -30 0 -19 -72 -16 -186 8 -141 30 -231 22 -339
-31 -213 -103 -309 -317 -239 -532 22 -67 32 -60 21 14 -12 74 2 178 33 239
105 205 403 267 540 112 113 -128 100 -360 -24 -442 -33 -22 -51 -26 -110 -26
-43 0 -83 6 -101 15 -64 33 -95 126 -59 178 32 45 117 67 165 42 13 -7 19 -7
19 -1 0 6 -14 18 -32 27 -58 30 -133 6 -181 -59 -16 -21 -20 -40 -19 -99 7
-380 545 -413 917 -57 22 21 63 60 90 86 33 32 62 73 85 123 91 194 91 195
139 198 24 2 41 0 40 -5 -2 -4 -21 -39 -43 -78 -21 -38 -63 -115 -94 -170
-103 -187 -228 -338 -358 -432 -161 -117 -439 -195 -619 -173 -154 18 -323 99
-421 202 -30 32 -57 58 -60 58 -11 0 -1 -23 30 -63 19 -24 37 -55 41 -68 4
-13 17 -37 28 -53 l20 -28 -24 12 c-13 7 -52 41 -86 76 -75 76 -134 192 -157
306 -20 95 -20 131 -2 233 51 287 210 476 452 539 155 40 454 5 541 -64 36
-28 41 -17 9 20 -41 49 -32 105 22 134 43 24 86 20 123 -11z m3809 -8 c50 -26
80 -81 80 -148 0 -89 -34 -136 -98 -137 -76 0 -119 120 -65 182 8 9 12 21 9
26 -9 16 -46 2 -62 -23 -44 -67 -35 -155 22 -230 151 -197 133 -450 -43 -645
-31 -33 -57 -59 -59 -57 -2 2 13 37 34 79 46 90 67 191 67 313 -1 148 -40 265
-129 381 -25 34 -46 70 -46 80 1 55 64 140 132 177 40 21 119 22 158 2z
m-4902 -19 c37 -19 68 -55 87 -98 21 -51 19 -68 -11 -103 l-25 -30 6 28 c10
49 -37 113 -92 123 -57 11 -89 -42 -40 -67 50 -26 49 -56 -3 -131 -112 -159
-143 -312 -105 -518 l6 -35 -20 35 c-23 43 -41 133 -41 209 0 109 39 278 65
286 49 15 50 18 13 27 -100 26 -120 157 -36 235 56 52 139 69 196 39z m2727
-243 c16 -119 50 -236 77 -267 5 -6 32 -51 59 -101 28 -49 60 -100 72 -112 29
-32 9 -29 -26 5 l-30 27 18 -30 c10 -16 40 -50 66 -75 53 -51 305 -336 320
-362 7 -13 4 -20 -11 -28 -11 -6 -25 -8 -30 -5 -5 3 -66 76 -137 162 -70 87
-150 181 -178 211 l-50 54 -68 -25 c-37 -14 -70 -21 -73 -16 -8 14 3 26 33 33
16 3 38 19 51 35 l22 29 -45 124 c-51 137 -80 244 -90 331 -8 70 11 79 20 10z
m-767 -132 c82 -70 82 -71 82 -298 0 -123 -4 -193 -9 -187 -28 27 -173 435
-187 523 l-7 43 34 -18 c19 -9 58 -38 87 -63z m522 57 c0 -43 74 -380 95 -430
6 -14 -10 -22 -97 -48 -112 -34 -203 -63 -287 -92 -30 -10 -57 -15 -60 -11 -4
4 -4 114 -1 243 l5 235 55 29 c63 34 235 95 268 96 16 0 22 -6 22 -22z m1774
-93 c131 -34 233 -147 203 -226 l-8 -24 -17 21 c-9 12 -24 35 -34 52 -23 44
-91 89 -152 103 -47 10 -56 9 -94 -10 -81 -42 -118 -124 -87 -197 l17 -39 18
41 c24 56 63 84 114 84 53 0 85 -17 114 -60 20 -29 23 -45 20 -90 -7 -97 -57
-168 -153 -218 -47 -25 -58 -27 -185 -26 -120 0 -144 3 -220 28 -210 70 -417
205 -556 365 -84 97 -106 134 -102 172 l3 33 45 -69 c24 -39 90 -115 145 -171
81 -82 115 -108 179 -140 76 -37 85 -39 175 -39 80 0 104 4 144 23 26 13 47
28 47 33 0 24 22 4 44 -39 44 -86 126 -142 208 -142 98 0 170 99 122 168 -21
30 -38 28 -18 -3 13 -20 14 -30 5 -58 -15 -45 -40 -66 -84 -74 -100 -16 -206
79 -225 202 -24 148 52 267 191 301 69 16 74 16 141 -1z m-2295 -383 c1 -20
-32 -80 -112 -204 -41 -62 -88 -140 -105 -174 l-31 -61 -83 -6 c-110 -9 -168
-9 -168 1 1 4 26 23 56 42 158 99 343 320 399 475 6 17 10 15 25 -20 10 -22
19 -46 19 -53z m-2378 4 c199 -60 283 -201 209 -347 -26 -51 -99 -99 -151 -99
-103 0 -131 148 -44 234 18 19 31 37 28 40 -4 3 -27 6 -53 6 -61 0 -141 -48
-192 -115 -44 -57 -58 -99 -58 -170 0 -102 36 -169 115 -212 42 -24 62 -28
126 -28 67 0 83 4 151 38 97 47 167 122 219 231 l37 79 16 -31 c9 -18 30 -47
47 -66 l30 -35 -40 -78 c-158 -313 -418 -503 -713 -520 -54 -3 -98 -8 -98 -11
0 -3 7 -14 17 -24 9 -10 14 -20 12 -22 -5 -5 -109 45 -109 53 0 3 37 25 83 48
45 23 129 80 186 127 111 90 114 91 252 102 47 3 92 12 100 18 28 20 51 64 44
84 -13 44 -74 34 -205 -35 -83 -44 -87 -45 -156 -40 -88 6 -157 39 -207 98
-66 77 -70 177 -15 350 20 64 20 99 -1 99 -23 0 -80 -63 -102 -112 -21 -45
-24 -68 -23 -158 0 -86 4 -115 23 -160 46 -111 142 -203 225 -217 20 -3 36 -9
36 -14 0 -17 -34 -26 -67 -19 -88 20 -166 69 -218 137 -28 37 -35 55 -35 91 0
29 -9 61 -26 93 -25 46 -27 54 -21 141 13 211 140 386 321 443 55 18 200 18
257 1z m5891 -54 c120 -55 204 -162 213 -273 2 -30 2 -45 -1 -35 -11 37 -63
112 -93 134 -48 35 -69 27 -31 -13 10 -11 27 -50 36 -85 15 -56 15 -76 5 -150
-7 -46 -21 -98 -31 -115 -54 -88 -173 -153 -293 -162 -68 -5 -84 -2 -182 31
-119 41 -150 41 -166 -1 -7 -19 -6 -31 6 -49 22 -34 61 -51 181 -79 58 -14
118 -32 132 -39 15 -8 70 -55 123 -104 53 -49 106 -93 118 -97 34 -11 24 -23
-26 -31 -69 -10 -181 18 -298 75 -135 66 -208 122 -295 226 -103 123 -173 152
-230 95 -11 -11 -20 -32 -20 -46 0 -62 111 -194 179 -215 24 -7 44 -21 52 -36
8 -14 38 -47 67 -74 56 -51 52 -59 -16 -35 -112 40 -250 166 -321 293 -25 43
-64 106 -87 139 l-43 62 47 17 c26 10 90 40 144 67 l96 50 29 -27 c179 -173
466 -196 608 -49 97 99 79 265 -35 332 -40 24 -55 27 -130 26 -64 0 -97 -6
-132 -22 -52 -23 -59 -36 -28 -52 10 -6 25 -28 31 -50 10 -33 9 -47 -5 -85
-19 -49 -39 -65 -81 -65 -42 0 -78 25 -104 70 -63 113 23 293 175 365 78 37
124 45 239 41 86 -3 110 -8 167 -34z m-2748 -97 c75 -127 94 -174 98 -245 3
-58 1 -65 -17 -68 -29 -6 -228 -73 -240 -81 -5 -4 -32 -16 -60 -26 -64 -24
-413 -200 -435 -220 -9 -8 -20 -15 -25 -15 -12 0 -1 238 12 251 6 6 39 14 73
18 42 5 67 14 76 25 13 19 8 46 -10 58 -19 13 -66 9 -91 -8 -13 -9 -28 -13
-33 -10 -9 5 20 175 33 196 5 7 147 66 270 110 33 12 114 37 180 55 66 19 121
34 122 34 1 1 22 -33 47 -74z m-741 -4 c54 -59 60 -77 53 -140 -11 -101 -28
-171 -41 -171 -7 0 -31 14 -54 30 -34 25 -45 28 -61 20 -39 -21 -25 -56 46
-112 66 -51 66 -52 60 -92 -4 -23 -9 -78 -13 -124 -3 -45 -9 -85 -14 -87 -17
-11 -219 339 -219 380 0 9 9 35 21 58 28 56 172 277 180 277 4 0 23 -18 42
-39z m-478 -23 c-8 -67 -51 -206 -76 -247 l-19 -31 -142 1 c-115 0 -139 3
-124 12 10 7 39 25 65 41 84 54 188 147 258 233 19 24 38 43 40 43 3 0 2 -24
-2 -52z m-1586 -38 c34 -29 34 -30 22 -72 -46 -154 -168 -260 -299 -260 -99 0
-152 41 -152 119 0 46 15 65 24 30 3 -12 19 -36 36 -52 27 -26 39 -30 88 -30
70 0 126 34 171 102 34 51 56 139 46 184 -6 28 -5 30 12 20 10 -6 33 -24 52
-41z m4904 -52 c-34 -133 61 -278 181 -278 61 0 126 75 126 145 0 28 16 32 47
10 32 -23 38 -66 14 -113 -46 -90 -162 -114 -277 -56 -69 34 -149 110 -188
177 l-28 47 63 60 c35 32 67 59 70 60 3 0 0 -24 -8 -52z m-1977 -238 c6 -6 53
-6 129 0 66 5 278 10 471 10 323 0 357 -2 430 -21 43 -11 123 -23 178 -26 l98
-6 -7 -1056 -7 -1056 -445 -5 -446 -5 -58 43 c-33 23 -59 47 -59 52 0 6 18 10
39 10 22 0 43 5 46 10 3 6 -3 10 -15 10 -36 0 -92 35 -183 114 -83 73 -100 97
-77 111 19 12 9 21 -54 49 -65 28 -187 127 -174 141 4 4 18 1 30 -7 47 -31 98
-41 139 -29 33 10 44 9 69 -5 24 -15 35 -16 68 -6 32 10 47 9 86 -4 60 -21 91
-9 112 42 18 44 12 77 -22 117 -14 17 -36 51 -49 76 -13 26 -75 101 -138 168
-105 111 -121 134 -182 252 -70 135 -143 230 -210 271 -30 18 -35 27 -35 58 0
43 -28 94 -65 118 -24 16 -38 15 -77 -1 -16 -6 -18 1 -18 86 0 52 3 151 7 221
l6 127 106 45 c91 39 275 105 292 106 3 0 9 -4 15 -10z m-3900 -59 c77 -35 98
-105 47 -153 -41 -38 -66 -48 -121 -48 -43 0 -54 4 -75 30 -14 16 -27 35 -29
41 -8 24 -28 -3 -44 -58 -20 -69 -14 -165 14 -241 22 -57 16 -69 -11 -22 -55
92 -72 231 -41 322 40 120 155 176 260 129z m6993 -82 c41 -29 80 -94 81 -132
0 -14 -11 -7 -44 26 -65 67 -162 88 -181 40 -7 -21 27 -53 57 -53 33 0 55 -18
72 -60 35 -89 10 -187 -68 -265 -86 -86 -208 -131 -381 -141 -107 -7 -115 0
-32 30 26 10 71 33 98 52 50 33 89 38 105 13 18 -30 111 31 176 117 75 99 87
118 87 146 1 40 -16 43 -23 4 -14 -72 -93 -113 -155 -81 -92 47 -97 212 -9
291 39 35 61 43 119 44 47 0 63 -5 98 -31z m-5447 -1286 c2 -709 1 -1290 -1
-1293 -2 -3 -8 4 -15 14 -6 11 -23 34 -38 51 l-28 32 25 61 c32 78 44 157 34
226 -16 117 -120 254 -244 317 -36 19 -65 37 -65 40 0 3 20 19 45 37 51 36
113 125 147 211 15 39 23 84 26 149 5 113 -12 167 -66 213 -25 21 -33 33 -24
36 30 11 82 66 101 107 15 29 21 62 21 105 0 83 -24 123 -85 147 l-45 17 0 70
c0 131 46 374 100 532 28 80 91 215 101 215 5 0 10 -579 11 -1287z m3833 1170
c69 -115 115 -332 115 -541 l0 -133 -43 -18 c-52 -23 -109 -86 -125 -140 -27
-90 -4 -194 53 -239 68 -54 174 -52 257 4 28 19 52 33 54 31 2 -2 -2 -23 -9
-48 l-13 -44 -53 -2 c-191 -9 -299 -236 -204 -429 45 -92 173 -194 244 -194
35 0 20 -15 -54 -53 -132 -68 -249 -170 -314 -273 -9 -15 -12 222 -12 1082 0
606 3 1104 7 1108 8 9 63 -53 97 -111z m-5270 -22 c3 -11 31 -43 61 -71 41
-37 72 -55 115 -68 32 -9 59 -20 59 -24 0 -3 -32 -25 -72 -48 l-72 -41 -39 17
c-46 21 -110 81 -132 125 -16 30 -16 32 8 58 13 14 30 36 36 49 14 27 28 28
36 3z m6557 -50 c4 -36 15 -63 42 -101 43 -60 40 -69 -29 -96 -56 -21 -151
-16 -191 11 l-29 19 74 13 c111 18 112 33 2 26 -79 -5 -94 -4 -111 12 -28 25
-25 32 13 40 45 10 136 58 177 94 19 17 38 30 41 31 4 0 9 -22 11 -49z m-5416
-88 c-76 -149 -116 -311 -116 -470 0 -99 22 -223 39 -223 4 0 15 16 25 34 32
61 62 81 116 81 37 0 54 -5 74 -24 102 -96 9 -308 -126 -287 -106 17 -194 96
-234 210 -41 113 1 330 104 531 32 64 142 228 148 222 3 -3 -11 -36 -30 -74z
m-1394 50 c20 -18 78 -23 113 -10 17 6 24 0 40 -29 23 -43 99 -112 132 -120
23 -6 33 -24 13 -24 -5 0 -10 -7 -10 -15 0 -22 154 -91 244 -109 43 -9 119
-16 170 -16 56 0 85 -4 76 -9 -28 -16 -203 -41 -289 -41 -277 1 -495 144 -518
341 -6 53 0 59 29 32z m5879 -257 c71 -53 215 -126 302 -153 31 -9 57 -20 57
-23 0 -3 -14 -13 -30 -22 -42 -24 -37 -38 13 -38 231 -2 466 -218 543 -501 27
-99 25 -272 -5 -371 -13 -43 -27 -78 -31 -78 -4 0 -10 12 -13 28 -3 15 -40 70
-82 122 -42 52 -83 106 -90 120 -7 15 -14 83 -17 175 -4 118 -10 159 -24 190
-43 90 -126 31 -148 -104 -5 -35 -15 -52 -46 -78 -42 -36 -47 -49 -76 -192
-21 -110 -55 -208 -94 -277 -32 -54 -50 -68 -50 -37 0 14 -3 14 -22 -4 -37
-33 -67 -45 -114 -45 -81 0 -120 43 -136 149 -14 96 -26 117 -68 120 -19 2
-54 6 -78 9 -30 4 -49 2 -67 -10 -35 -23 -37 -21 -29 32 13 88 69 164 132 178
15 3 33 8 41 10 7 2 32 -1 54 -7 23 -6 65 -12 94 -13 57 -1 103 -32 103 -70 0
-39 -40 -102 -85 -134 -51 -35 -54 -48 -24 -86 57 -73 203 20 262 167 40 99
57 203 58 354 2 152 -11 233 -47 305 -36 71 -55 77 -109 33 -26 -22 -49 -52
-57 -73 -19 -57 -15 -167 11 -270 16 -64 22 -111 19 -152 -5 -68 -11 -78 -34
-59 -11 9 -40 14 -86 13 -37 -1 -68 1 -68 4 0 3 12 30 26 59 14 30 30 82 35
115 6 34 15 70 20 80 26 48 42 130 43 213 1 94 -18 151 -60 186 -16 13 -17 12
-10 -11 29 -94 14 -211 -40 -320 -69 -138 -161 -168 -255 -83 -33 30 -42 34
-50 22 -10 -15 -6 -90 7 -123 12 -30 -14 -10 -32 26 -23 44 -21 136 4 184 49
97 172 90 247 -13 36 -51 50 -54 41 -10 -4 17 -1 75 5 128 12 106 2 204 -27
282 -27 69 -73 201 -73 210 -1 4 21 -19 48 -51 27 -32 77 -80 112 -106z
m-2151 9 c15 -16 24 -41 28 -74 4 -44 9 -52 48 -82 62 -47 121 -126 200 -269
57 -102 86 -142 166 -225 109 -114 123 -131 162 -195 15 -25 38 -60 52 -79 27
-39 24 -73 -10 -109 -21 -22 -23 -22 -66 -7 -35 13 -54 14 -86 6 -38 -10 -47
-7 -155 45 -63 31 -131 72 -151 92 -21 20 -38 30 -38 23 0 -23 59 -70 136
-107 41 -21 74 -41 74 -46 0 -4 -16 -8 -36 -8 -23 0 -70 18 -134 50 -64 33
-117 53 -151 57 -38 4 -61 14 -85 36 -31 27 -49 26 -22 -1 9 -9 8 -12 -5 -12
-9 0 -34 17 -55 38 -21 21 -46 41 -55 45 -9 3 -14 12 -12 19 3 7 -5 18 -17 23
-13 6 -33 30 -46 55 -30 58 -25 111 15 152 23 24 33 28 58 23 17 -3 44 -7 60
-8 17 -1 44 -10 59 -21 23 -14 41 -17 81 -13 49 5 52 4 64 -23 7 -16 22 -32
34 -35 12 -4 47 -31 77 -60 156 -152 266 -235 311 -235 6 0 -10 21 -36 47 -25
26 -49 60 -52 76 -6 29 -165 188 -270 269 -49 37 -56 40 -64 25 -15 -26 -24
-20 -25 17 0 36 -23 74 -33 57 -4 -5 -19 -13 -34 -16 -26 -7 -28 -6 -21 19 5
22 0 32 -32 62 -22 20 -56 47 -76 61 -31 21 -40 23 -53 13 -19 -16 -18 -17
-41 45 -10 28 -35 68 -55 90 -40 45 -76 102 -68 110 10 10 112 25 168 25 52 0
58 2 84 35 34 43 73 47 107 10z m-401 -83 c48 -24 50 -40 7 -39 -27 1 -44 -7
-66 -28 -39 -38 -39 -74 0 -119 24 -27 29 -39 21 -53 -83 -157 -92 -183 -92
-278 0 -112 24 -198 57 -203 14 -2 26 -17 37 -50 10 -26 27 -58 38 -72 17 -20
19 -21 14 -5 -4 11 -23 62 -41 113 -35 96 -43 135 -23 115 5 -5 25 -53 43
-106 45 -127 80 -188 138 -243 48 -44 80 -55 43 -14 -10 11 -16 23 -12 26 8 8
47 -5 47 -16 0 -5 35 -33 78 -63 91 -64 126 -102 158 -172 18 -40 23 -45 23
-25 1 59 -88 170 -178 222 -46 26 -55 43 -14 27 48 -18 89 -47 135 -97 77 -82
83 -101 81 -229 -1 -106 0 -113 18 -113 10 0 19 7 19 15 0 7 5 37 11 65 8 40
16 53 35 60 14 6 24 18 24 30 0 11 4 20 9 20 19 0 149 -151 179 -209 37 -69
62 -169 62 -253 0 -47 4 -59 20 -68 31 -16 38 -6 45 65 4 36 11 65 15 65 14 0
61 -70 90 -133 48 -107 64 -203 65 -382 0 -145 -2 -166 -24 -223 -21 -56 -22
-64 -8 -75 13 -10 14 -23 6 -82 -5 -38 -12 -89 -15 -113 -5 -40 -9 -45 -50
-62 -44 -19 -54 -36 -33 -57 6 -6 8 -16 5 -21 -8 -13 -133 -42 -180 -42 -43 0
-48 -21 -15 -57 l22 -22 -27 -11 c-15 -5 -42 -21 -59 -34 -38 -28 -80 -38
-302 -71 -213 -32 -241 -40 -278 -76 -29 -29 -31 -46 -12 -92 6 -13 2 -17 -16
-17 -26 0 -59 26 -59 48 0 12 -3 12 -15 2 -8 -7 -15 -19 -15 -26 0 -19 -16
-18 -24 2 -3 9 -6 41 -6 72 1 96 23 112 240 167 184 47 300 100 336 155 26 39
25 60 -2 60 -17 0 -17 -4 1 45 20 55 19 129 -1 150 -15 15 -18 15 -35 -1 -22
-20 -21 -20 -44 25 -49 97 -54 163 -24 307 20 95 20 131 3 232 -7 37 -21 42
-26 10 -2 -16 -10 -4 -28 42 -21 55 -35 73 -95 123 -38 32 -76 71 -84 85 -9
16 -17 73 -21 142 -4 79 -11 125 -23 147 -9 18 -17 48 -17 68 0 70 -50 140
-72 101 -23 -40 -133 -86 -209 -86 -25 0 -42 11 -80 50 -51 53 -63 58 -91 36
-22 -16 -23 -59 -3 -116 19 -54 18 -111 -3 -175 -16 -45 -21 -51 -67 -68 -150
-57 -160 -63 -187 -103 -19 -29 -39 -44 -77 -58 -27 -10 -69 -35 -93 -55 -66
-58 -79 -63 -139 -50 -50 11 -54 10 -71 -11 -11 -13 -16 -31 -13 -41 7 -22
-14 -26 -33 -7 -9 9 -20 3 -46 -28 -28 -32 -37 -37 -52 -28 -38 23 -39 40 -6
78 53 60 36 61 -24 1 -57 -57 -72 -63 -92 -43 -9 9 -16 7 -31 -6 -19 -17 -20
-17 -30 3 -15 27 -14 47 4 81 29 57 117 99 252 122 l76 12 147 146 c101 100
150 156 158 180 15 45 32 196 32 283 0 72 -22 143 -40 132 -6 -4 -9 -13 -6
-20 2 -7 1 -26 -3 -42 l-8 -28 -11 25 c-5 14 -15 75 -22 136 -11 96 -11 123 4
209 16 97 63 222 92 246 26 21 17 39 -16 33 -38 -8 -38 2 -1 53 34 47 67 73
93 73 10 0 38 28 67 68 52 70 123 131 184 157 47 20 47 20 47 -14 0 -35 18
-91 37 -112 12 -15 11 -21 -6 -50 -12 -19 -21 -43 -21 -54 0 -13 12 0 30 34
l30 54 -20 42 c-63 130 38 249 159 187z m-1253 -143 c19 -11 34 -24 34 -27 0
-4 16 -25 36 -47 46 -50 76 -116 107 -230 14 -49 28 -98 32 -107 4 -10 5 -18
2 -18 -4 0 -15 20 -26 45 -11 25 -24 45 -28 45 -16 0 -33 -24 -33 -47 0 -12
-8 -26 -17 -32 -16 -9 -16 -16 6 -114 23 -103 23 -105 5 -136 -24 -40 -12 -61
44 -79 40 -13 42 -16 42 -55 0 -47 42 -144 83 -193 21 -25 25 -38 20 -67 -5
-32 -1 -40 42 -86 27 -28 75 -69 108 -91 57 -38 61 -40 79 -24 15 14 23 15 43
6 25 -11 25 -13 9 -37 -9 -14 -22 -25 -29 -25 -31 0 -235 79 -235 92 0 4 9 8
20 8 32 0 23 13 -37 50 -53 34 -153 132 -153 151 0 5 11 16 25 25 30 20 32 40
6 49 -26 8 -126 86 -150 116 -28 37 -52 89 -46 99 3 5 13 6 22 3 13 -5 15 -3
8 13 -31 73 -44 127 -45 184 0 66 -12 95 -52 130 -9 8 -23 38 -31 65 -8 28
-18 58 -22 68 -5 13 -2 17 12 17 10 0 25 -6 32 -12 11 -11 12 -9 8 7 -3 11
-10 46 -16 78 -6 31 -15 66 -21 77 -9 17 -8 20 10 20 12 0 30 -5 40 -10 33
-18 35 19 5 93 -10 24 19 22 61 -4z m4080 -103 c23 -50 50 -204 37 -216 -5 -5
-25 19 -80 98 -44 63 -50 118 -18 151 11 11 24 20 28 20 4 1 19 -23 33 -53z
m-5810 -5 c25 4 44 -3 44 -16 0 -8 -4 -15 -8 -15 -12 0 -105 -117 -139 -175
-79 -135 -123 -295 -123 -447 0 -142 36 -250 140 -423 72 -120 92 -168 92
-231 0 -30 -2 -57 -5 -60 -3 -4 -29 -1 -57 6 -28 7 -69 10 -91 6 -36 -6 -39
-5 -39 18 0 13 -12 57 -26 98 -102 289 -119 372 -111 548 9 201 72 400 178
566 66 101 108 147 124 134 7 -6 17 -10 21 -9z m515 -37 c46 -28 61 -43 69
-72 7 -20 15 -131 19 -247 8 -228 13 -247 73 -331 59 -82 167 -131 206 -92 19
19 14 63 -9 84 -11 10 -36 40 -55 65 -37 51 -45 108 -20 141 20 27 68 33 106
13 l33 -17 24 30 c28 36 81 56 123 47 71 -16 130 -140 115 -244 -43 -301 -271
-443 -472 -292 -75 57 -118 129 -143 241 -45 198 -67 244 -106 216 -31 -23
-27 -135 9 -205 15 -30 27 -57 27 -60 -1 -12 -41 45 -65 90 -28 53 -32 84 -45
309 -5 91 -15 185 -23 210 -24 83 -102 94 -140 20 -15 -29 -17 -53 -14 -135 3
-91 1 -106 -25 -173 -15 -40 -28 -79 -28 -86 0 -8 -20 -38 -45 -67 -24 -29
-52 -72 -61 -96 -9 -24 -20 -43 -24 -43 -16 0 -43 131 -48 232 -7 154 16 259
83 376 27 49 35 56 89 74 42 14 73 18 105 13 33 -4 61 0 101 14 30 11 61 20
69 21 7 0 40 -16 72 -36z m-545 -402 c1 -152 17 -241 61 -332 l27 -55 5 50 c4
28 16 66 29 86 44 73 47 68 49 -69 0 -94 6 -147 21 -202 11 -41 19 -76 17 -78
-2 -2 -12 1 -23 7 -12 6 -31 11 -43 11 -28 0 -149 99 -181 148 -44 68 -51 97
-51 225 0 137 13 206 55 290 15 31 29 57 31 57 1 0 2 -62 3 -138z m6574 -4 c0
-6 -9 -3 -20 7 -31 28 -37 8 -7 -23 45 -47 77 -129 77 -200 0 -84 -24 -152
-85 -242 -66 -96 -156 -171 -255 -209 -74 -28 -140 -45 -140 -36 0 3 15 24 33
47 68 90 115 237 101 321 -7 46 3 47 43 5 50 -53 66 -94 61 -155 -6 -66 7 -65
44 2 39 73 67 164 80 268 11 93 10 103 -28 302 -5 29 -3 28 45 -23 28 -29 51
-58 51 -64z m-403 -296 c15 -11 37 -21 48 -23 62 -12 5 -223 -94 -347 -23 -29
-39 -57 -36 -62 4 -6 11 -8 16 -5 19 12 28 -6 17 -33 -83 -192 -328 -372 -506
-372 -99 0 -152 46 -152 132 0 45 37 135 65 158 13 10 15 8 15 -13 0 -15 13
-42 31 -62 29 -32 36 -35 87 -35 95 0 185 58 253 162 40 62 96 194 87 204 -4
3 -21 -22 -39 -56 -82 -154 -212 -247 -271 -193 -39 36 -15 78 133 228 143
146 202 241 256 415 3 10 14 -1 33 -31 16 -26 41 -56 57 -67z m-5413 -429 c14
-36 6 -73 -19 -85 -103 -47 -300 184 -330 387 l-8 49 176 -168 c97 -93 178
-175 181 -183z m4881 91 c-11 -8 -56 -41 -100 -73 -118 -87 -202 -203 -249
-342 -8 -26 -22 -100 -31 -165 -16 -111 -21 -133 -28 -123 -26 37 -82 184 -85
227 -16 195 129 361 408 463 86 31 116 36 85 13z m-5256 -89 c20 -49 51 -116
69 -147 38 -68 39 -75 12 -83 -15 -5 -26 0 -41 19 -24 30 -32 32 -54 10 -10
-11 -14 -25 -11 -40 8 -31 -1 -30 -35 2 -16 15 -46 71 -69 130 -23 57 -54 115
-68 130 l-27 27 34 -7 c19 -3 42 -13 51 -21 18 -16 38 -19 64 -9 12 5 15 15
10 46 -6 35 -5 40 11 37 12 -3 30 -34 54 -94z m662 9 c37 -19 94 -85 125 -146
22 -43 28 -71 31 -143 5 -87 -9 -270 -20 -281 -9 -9 -65 57 -88 105 -22 44
-22 44 -5 167 13 96 14 133 6 164 -14 52 -71 115 -117 131 -26 8 -32 14 -22
20 16 9 51 3 90 -17z m2077 -32 c2 -12 -4 -32 -12 -44 -9 -12 -19 -44 -22 -71
-6 -44 -13 -53 -71 -105 -70 -62 -109 -89 -117 -81 -3 3 6 27 20 54 21 40 25
60 21 100 -4 44 -2 54 22 80 31 35 80 75 92 75 5 0 -3 -21 -16 -46 -14 -26
-25 -54 -25 -63 1 -9 12 7 26 34 39 76 54 97 67 92 7 -2 13 -13 15 -25z
m-2088 -36 c35 -38 39 -124 10 -235 -29 -115 -17 -164 60 -237 46 -44 48 -51
18 -56 -12 -2 -23 -9 -26 -16 -2 -7 39 -55 91 -107 l95 -94 12 -74 c13 -78 10
-343 -3 -364 -13 -20 -33 -5 -60 45 -47 86 -57 130 -57 252 0 127 -15 201 -51
252 l-23 32 -13 -114 c-14 -128 -32 -196 -65 -254 -33 -56 -52 -65 -80 -39
-13 12 -41 29 -62 38 l-39 16 31 19 c17 11 38 34 45 52 8 18 25 39 38 46 30
16 72 76 88 122 16 52 15 170 -2 231 -11 38 -28 66 -57 94 -22 21 -40 42 -40
45 0 4 17 25 38 47 61 63 78 154 46 245 -8 25 -24 54 -35 64 -10 9 -19 21 -19
26 0 13 31 -6 60 -36z m1251 -11 c5 -4 -28 -44 -74 -88 -46 -45 -93 -94 -103
-109 -16 -24 -31 -30 -109 -43 -224 -39 -343 -159 -255 -258 17 -19 30 -39 30
-45 0 -14 58 -62 75 -62 8 0 15 12 17 27 5 40 22 38 65 -5 35 -36 78 -60 89
-50 2 2 -2 18 -8 36 -17 43 -5 49 33 18 36 -31 49 -30 66 5 6 13 29 32 50 43
21 10 45 22 54 26 12 6 19 2 28 -17 9 -20 14 -23 26 -13 18 15 35 5 35 -21 0
-13 5 -19 13 -15 6 2 32 10 56 17 29 8 58 27 90 61 42 43 53 49 111 59 76 13
140 43 227 105 l62 44 73 -73 c76 -77 125 -106 190 -114 21 -3 41 -10 44 -15
7 -11 -24 -48 -41 -48 -16 0 -105 -78 -105 -92 0 -6 11 -8 25 -4 l26 7 -21
-40 c-11 -22 -20 -49 -20 -61 0 -18 -6 -20 -70 -20 -59 0 -81 5 -132 31 -118
60 -232 66 -305 16 -39 -26 -83 -103 -83 -143 l1 -29 18 23 c11 12 21 22 24
22 2 0 7 -25 9 -56 4 -43 11 -61 31 -82 26 -26 27 -26 27 -5 0 34 15 35 39 3
22 -30 63 -41 76 -20 10 16 45 12 45 -5 0 -27 47 -48 95 -42 51 5 61 -2 40
-29 -20 -27 -18 -36 5 -29 33 10 42 -3 24 -37 -10 -20 -14 -42 -9 -64 6 -33
25 -48 25 -20 0 24 26 36 91 42 35 3 74 10 86 16 29 14 41 3 25 -22 -18 -30
-15 -34 13 -16 13 9 45 16 70 16 l45 0 0 -123 0 -124 -57 -12 c-90 -20 -160
-55 -183 -93 -34 -56 -21 -170 25 -208 14 -11 17 -10 22 9 8 30 24 22 46 -22
21 -43 28 -45 42 -15 17 36 38 43 69 22 l28 -18 -7 -535 c-4 -295 -10 -566
-14 -603 l-6 -68 -115 66 c-153 87 -375 234 -535 355 -462 347 -797 690 -997
1019 l-61 102 12 121 c23 243 10 414 -44 586 -23 73 -24 88 -26 391 l-1 315
174 5 c299 9 678 11 689 5z m4161 -144 c-4 -61 11 -121 30 -121 5 0 21 9 36
20 15 11 45 22 67 26 32 5 46 1 68 -16 16 -13 32 -33 37 -45 13 -35 -7 -94
-46 -133 -36 -36 -53 -38 -35 -3 8 14 8 27 -1 45 -14 31 -38 33 -63 6 -20 -22
-83 -27 -117 -9 -46 25 -59 111 -33 214 28 106 62 116 57 16z m-6231 5 c34
-74 16 -170 -42 -223 -64 -59 -209 -84 -276 -49 -83 43 -120 149 -73 208 30
39 72 52 149 45 l68 -6 16 32 16 32 0 -75 c1 -58 -4 -82 -19 -108 -27 -44 -58
-55 -89 -31 -31 24 -48 24 -61 -2 -27 -50 48 -94 134 -78 138 26 198 127 151
259 -18 51 -18 53 -4 44 6 -3 20 -25 30 -48z m423 -130 c25 -19 66 -42 93 -52
26 -9 56 -25 67 -33 37 -31 117 -155 131 -205 16 -53 11 -116 -9 -116 -12 1
-213 250 -269 335 -82 122 -82 124 -13 71z m5144 -188 c-171 -252 -182 -267
-190 -268 -5 0 -8 29 -8 65 0 78 26 152 83 237 35 51 51 66 92 82 28 11 70 32
95 47 24 15 46 26 48 24 2 -2 -52 -86 -120 -187z m-624 4 c20 -35 36 -70 36
-77 0 -14 -79 -165 -86 -165 -2 0 -4 73 -4 162 0 100 4 158 9 153 5 -6 26 -39
45 -73z m261 -50 c-33 -61 -111 -151 -140 -162 -25 -10 -58 -74 -83 -163 -26
-96 -23 -308 7 -407 29 -94 29 -105 2 -220 -12 -52 -26 -138 -30 -190 l-7 -95
-42 85 c-128 261 -130 617 -4 919 36 86 77 161 88 161 4 0 4 -25 2 -55 -3 -30
-3 -55 -2 -55 12 0 169 161 196 200 41 60 49 48 13 -18z m-4960 14 c40 -17 75
-68 75 -109 0 -58 -49 -116 -134 -161 -70 -37 -76 -44 -76 -90 1 -79 70 -180
146 -212 l33 -14 -29 -44 c-30 -44 -31 -44 -68 -34 -20 5 -63 24 -96 41 -127
67 -206 188 -214 326 -4 69 -1 85 23 140 31 68 84 123 149 152 50 23 143 25
191 5z m5362 -1 c8 -9 28 -19 44 -22 16 -3 29 -7 29 -10 0 -9 -143 -229 -163
-250 -11 -13 -26 -23 -34 -23 -20 0 -53 38 -53 61 0 19 146 259 157 259 3 0
11 -7 20 -15z m-2563 -45 c19 -19 19 -19 -11 -47 -16 -16 -37 -42 -46 -59 -22
-44 -57 -172 -57 -211 0 -39 -7 -40 -55 -12 -30 18 -45 20 -95 15 -44 -5 -67
-3 -88 8 -16 8 -60 20 -98 26 -38 6 -79 15 -92 21 -13 5 -41 6 -63 3 -32 -5
-39 -10 -32 -23 4 -9 8 -41 9 -71 0 -30 4 -63 9 -72 4 -11 3 -18 -3 -18 -11 0
-46 41 -56 63 -3 8 -11 4 -24 -12 -25 -31 -34 -17 -40 70 -4 58 -7 67 -19 58
-26 -22 -26 1 1 36 66 86 174 92 332 19 47 -22 75 -28 134 -28 41 -1 81 -5 87
-9 10 -6 11 0 7 22 -8 38 11 93 44 132 l26 31 -33 -7 c-46 -10 -33 9 28 39 26
14 53 32 61 40 15 19 46 13 74 -14z m-2560 -150 c47 -63 97 -136 112 -163 32
-59 26 -67 -58 -67 -97 0 -185 45 -235 121 l-26 39 41 38 c45 42 56 70 50 137
-3 42 -2 43 13 27 10 -9 55 -69 103 -132z m5623 64 c43 -27 99 -91 89 -102 -3
-2 -22 10 -43 26 -74 59 -181 66 -255 17 -41 -27 -58 -66 -38 -90 16 -20 35
-19 103 5 77 27 118 26 149 -5 57 -57 35 -186 -49 -285 -42 -50 -135 -107
-190 -115 -27 -4 -56 -11 -66 -17 -15 -8 -22 -5 -35 14 -8 12 -37 44 -65 70
l-49 48 27 10 c15 6 40 19 55 30 27 19 27 19 46 -1 23 -26 67 -49 92 -49 41 0
132 117 132 170 0 20 -3 21 -27 14 -16 -5 -52 -9 -80 -9 -46 0 -57 4 -84 31
-52 52 -53 154 -2 215 41 48 76 60 165 56 64 -3 85 -9 125 -33z m-827 -14 c10
6 22 15 25 20 14 23 22 7 17 -38 -8 -89 32 -173 100 -208 16 -8 28 -20 26 -26
-8 -22 -73 -49 -110 -46 -21 2 -38 3 -38 2 0 -1 16 -25 35 -54 19 -29 35 -56
35 -61 0 -11 -63 -98 -72 -98 -10 -1 -55 77 -72 127 -28 79 -39 205 -27 295 7
45 15 90 17 100 6 18 7 18 25 -2 16 -17 24 -19 39 -11z m-108 -122 c-2 -51 1
-127 7 -168 11 -66 10 -78 -6 -107 -10 -18 -20 -33 -24 -33 -24 0 -34 168 -16
265 14 76 32 135 40 135 2 0 2 -42 -1 -92z m-1074 -330 c12 -23 24 -56 28 -73
4 -16 25 -51 48 -76 23 -26 51 -57 62 -70 52 -59 94 -89 124 -89 16 0 30 -4
30 -9 0 -14 -56 -23 -99 -16 -44 7 -128 57 -137 80 -11 28 -34 17 -34 -17 l-1
-33 -19 23 c-27 33 -43 98 -38 153 4 38 1 48 -14 58 -22 13 -48 69 -48 101 0
12 12 36 27 55 l27 34 12 -38 c6 -22 21 -59 32 -83z m-3419 71 c47 -26 67 -66
64 -131 -4 -86 -51 -150 -119 -164 -47 -9 -94 35 -94 87 0 32 4 41 25 51 19 9
28 9 37 0 33 -33 39 12 7 52 -27 35 -86 36 -144 1 -91 -53 -106 -164 -37 -268
28 -42 132 -117 163 -117 27 0 31 -15 16 -52 -22 -51 -88 -105 -154 -124 -214
-62 -554 110 -724 368 -62 94 -140 288 -116 288 12 0 202 -81 211 -90 8 -8 4
-16 -14 -31 l-25 -21 30 8 c89 21 163 7 243 -46 54 -36 98 -83 104 -111 2 -8
-15 -11 -62 -10 -45 1 -60 -1 -50 -8 8 -5 17 -8 21 -5 15 9 108 -18 137 -39
16 -12 46 -45 67 -72 79 -106 173 -185 219 -185 27 0 56 28 56 55 0 32 -33 61
-119 104 -193 97 -221 237 -77 389 91 97 235 128 335 71z m283 -94 c89 -199
127 -367 135 -601 7 -202 -5 -275 -68 -405 -85 -176 -217 -302 -410 -393 -331
-155 -723 -104 -888 117 -51 68 -76 120 -90 185 -15 70 -14 98 4 159 54 182
310 250 364 97 27 -78 -18 -174 -82 -174 -35 0 -67 25 -67 52 0 28 -18 58 -35
58 -26 0 -45 -42 -45 -98 0 -62 21 -114 56 -137 32 -20 106 -30 131 -17 17 9
26 5 57 -27 20 -21 56 -47 79 -59 53 -26 150 -52 197 -52 50 0 134 24 168 49
16 11 53 29 83 41 125 47 261 180 330 323 58 121 73 202 66 376 -7 188 -41
322 -118 458 -34 62 -35 65 -11 62 32 -3 37 1 62 46 29 54 32 52 82 -60z
m4299 -32 l30 -43 -40 -83 c-61 -125 -83 -218 -88 -382 -5 -150 8 -258 47
-370 11 -32 18 -60 16 -62 -7 -7 -44 62 -61 115 -30 90 -38 44 -10 -54 90
-317 305 -507 610 -539 104 -11 263 32 362 99 63 43 152 137 178 190 29 58 32
98 8 122 -16 16 -19 15 -43 -13 -46 -54 -98 -67 -154 -38 -43 22 -46 7 -6 -26
24 -21 29 -29 17 -29 -10 0 -34 15 -53 33 -31 28 -37 42 -41 84 -9 93 51 162
155 179 80 13 162 -38 209 -129 23 -46 25 -59 21 -141 -4 -79 -9 -102 -41
-169 -85 -183 -254 -277 -498 -277 -333 1 -609 186 -764 513 -155 326 -130
758 62 1087 l27 45 14 -34 c7 -19 27 -54 43 -78z m354 52 c73 -32 145 -112
145 -159 0 -13 -16 4 -43 44 -49 73 -98 110 -122 90 -25 -21 -17 -45 23 -71
75 -48 94 -151 46 -247 -48 -97 -144 -149 -257 -139 -71 6 -83 15 -70 53 9 26
13 28 59 26 116 -6 188 99 136 198 -25 46 -42 50 -42 9 0 -43 -25 -69 -67 -69
-86 0 -125 133 -63 218 60 83 142 98 255 47z m790 -132 c-13 -70 -67 -194
-116 -268 -108 -161 -289 -276 -459 -291 -36 -3 -80 -13 -98 -21 -30 -13 -37
-13 -74 6 -33 16 -44 18 -62 8 -11 -7 -23 -13 -25 -14 -2 -1 10 -14 25 -28 24
-21 25 -25 9 -21 -76 17 -94 17 -114 -6 -29 -31 -28 -82 4 -113 31 -32 84 -33
163 -4 85 32 101 32 167 5 72 -30 95 -61 95 -129 0 -78 -49 -152 -127 -191
-44 -22 -53 -19 -22 7 68 56 97 139 65 182 -12 16 -16 17 -30 6 -9 -7 -16 -20
-16 -28 0 -30 -63 -79 -117 -92 -135 -32 -268 49 -327 198 -19 48 -46 212 -46
279 0 38 2 42 25 42 14 0 25 4 25 9 0 4 19 5 43 0 23 -4 58 -5 78 -2 32 4 38
2 44 -16 9 -30 46 -45 91 -36 53 10 146 106 214 223 82 141 117 165 263 178
74 8 91 24 25 24 -41 1 -42 1 -23 16 11 8 45 21 75 30 111 29 220 65 225 75
15 23 27 7 20 -28z m-1101 -68 c19 -100 157 -139 200 -56 19 35 28 10 14 -35
-36 -109 -193 -112 -248 -5 -24 49 -25 60 -3 105 19 41 28 39 37 -9z m-4005
-253 c79 -130 286 -399 328 -425 24 -15 13 -32 -76 -121 l-89 -89 -44 37 c-24
21 -72 52 -108 69 -53 26 -78 31 -132 32 -60 0 -67 2 -62 18 3 9 9 52 13 95 5
44 17 94 29 117 27 54 66 175 82 258 8 37 16 67 19 67 3 0 22 -26 40 -58z
m-659 -371 c0 -74 -73 -141 -154 -141 -35 0 -46 6 -86 50 -36 39 -53 50 -77
50 -56 0 -107 -89 -88 -152 33 -104 168 -152 323 -113 91 22 126 15 47 -9
-131 -42 -306 -15 -378 58 -33 32 -57 92 -57 137 1 42 37 107 69 123 41 22
132 20 235 -4 74 -18 90 -19 114 -8 15 8 28 23 30 36 5 35 22 15 22 -27z
m-492 -17 c10 -3 10 -9 2 -23 -16 -31 -11 -122 9 -166 23 -51 64 -88 121 -114
86 -38 226 -47 306 -21 20 7 38 10 41 7 8 -9 -76 -48 -95 -45 -9 1 -39 -8 -67
-21 -67 -32 -194 -33 -276 -2 -56 21 -139 83 -139 103 0 6 12 36 26 66 22 46
25 64 21 121 -2 36 -8 76 -12 89 -7 21 -5 23 21 17 16 -4 35 -8 42 -11z m4718
-91 c10 -36 -8 -48 -44 -29 -17 9 -42 16 -56 16 -61 0 -178 -67 -277 -158
l-53 -49 18 -58 c10 -32 33 -73 52 -95 l34 -38 -67 -49 c-38 -28 -85 -61 -106
-76 l-39 -25 -56 66 c-31 37 -62 71 -69 75 -23 14 -14 31 35 67 26 18 110 86
187 150 198 165 275 214 358 229 56 10 76 3 83 -26z m1154 10 c-1 -5 -7 -19
-15 -33 -19 -33 -19 -114 0 -150 8 -15 30 -41 50 -57 l35 -29 -35 -42 c-75
-87 -211 -121 -356 -88 -74 16 -149 51 -156 72 -3 8 14 7 52 -3 114 -29 248
17 314 107 41 57 54 102 49 171 l-4 59 33 0 c18 0 33 -3 33 -7z m-1038 -165
c105 -209 165 -290 278 -377 133 -104 166 -150 154 -219 -26 -148 -244 -381
-557 -597 -360 -247 -821 -459 -1201 -549 -303 -73 -373 -81 -706 -81 -313 1
-394 8 -659 60 -732 145 -1385 547 -1759 1084 -56 80 -65 119 -36 159 20 29
184 151 252 187 72 39 200 160 257 244 l47 69 31 -61 c71 -145 332 -355 612
-492 660 -324 1372 -370 2075 -135 271 90 540 230 753 392 177 134 357 337
374 420 3 15 8 28 12 28 4 0 37 -60 73 -132z m-3124 -22 c17 -19 34 -50 37
-68 9 -48 -16 -105 -52 -119 -70 -27 -205 24 -300 113 -57 54 -62 68 -37 89
15 12 18 11 28 -6 6 -11 25 -34 43 -52 27 -29 38 -33 81 -33 57 0 105 27 137
77 11 18 23 32 26 33 3 0 20 -15 37 -34z m128 -117 c32 -36 244 -203 378 -298
149 -106 349 -233 494 -315 56 -32 102 -61 102 -64 0 -10 -365 8 -465 23 -113
18 -291 57 -380 84 -196 61 -464 182 -448 204 76 100 172 213 199 233 44 34
74 84 74 123 0 37 18 41 46 10z m2178 -151 c64 -67 116 -126 116 -132 0 -23
-269 -158 -456 -229 -178 -68 -457 -136 -624 -152 -36 -3 -75 -8 -87 -11 -43
-9 -23 12 45 44 196 96 509 304 749 497 70 57 131 104 135 104 3 1 58 -54 122
-121z"/>
<path d="M5414 8081 c-69 -32 -79 -44 -76 -86 3 -29 21 -85 28 -85 2 0 25 13
51 28 72 42 81 44 100 22 10 -11 21 -20 25 -20 12 0 10 38 -2 45 -5 3 -10 16
-10 29 0 13 -9 31 -20 41 -11 10 -20 26 -20 37 0 23 -3 23 -76 -11z"/>
<path d="M2206 3938 c-3 -7 -7 -26 -11 -41 -7 -35 -70 -66 -131 -67 -23 0 -47
-6 -53 -14 -29 -34 32 -73 96 -62 57 10 141 54 148 77 13 40 -12 119 -37 119
-5 0 -10 -6 -12 -12z"/>
<path d="M6584 1789 c-65 -50 -120 -93 -121 -97 -2 -4 1 -14 7 -22 7 -12 12
-12 35 0 22 12 28 12 39 -1 42 -43 256 -302 256 -309 0 -4 -7 -13 -15 -20 -19
-16 -19 -36 0 -44 17 -6 165 102 165 122 0 18 -29 27 -43 13 -6 -6 -16 -11
-23 -11 -11 0 -124 128 -124 140 0 4 14 17 31 29 l31 23 22 -21 c26 -25 44
-27 52 -6 4 8 -17 41 -51 82 -65 77 -64 76 -85 63 -12 -8 -13 -13 -2 -30 19
-30 15 -47 -17 -69 l-28 -21 -52 59 c-28 33 -51 62 -51 64 0 3 21 19 47 36 49
32 71 33 105 3 14 -12 21 -12 33 -2 12 10 9 19 -28 61 -23 27 -47 49 -53 49
-5 0 -64 -41 -130 -91z"/>
<path d="M3111 1856 c-9 -10 -8 -16 4 -26 8 -7 15 -20 15 -29 0 -9 -44 -68
-96 -131 -167 -200 -157 -190 -199 -187 -21 1 -40 -3 -42 -9 -5 -15 146 -127
163 -120 18 7 18 25 -1 46 -14 16 -12 22 27 70 24 29 50 62 59 73 16 19 17 19
78 -24 33 -23 61 -45 61 -48 0 -4 -29 -37 -64 -76 -55 -61 -65 -68 -79 -56
-19 15 -47 8 -47 -12 0 -7 35 -39 77 -70 68 -50 79 -55 92 -42 13 13 13 17 -3
34 -10 11 -16 26 -13 33 8 20 247 302 263 311 9 5 21 4 29 -3 17 -14 45 -6 45
12 0 19 -147 121 -165 114 -19 -7 -19 -20 0 -36 8 -7 15 -17 15 -23 0 -8 -36
-54 -101 -131 -6 -7 -80 38 -123 75 -12 11 93 139 114 139 9 0 21 -5 27 -11
13 -13 33 -4 33 16 0 12 -140 125 -154 125 -2 0 -9 -6 -15 -14z"/>
<path d="M6285 1599 c-66 -39 -127 -74 -135 -79 -13 -8 -13 -11 1 -25 13 -13
21 -15 37 -6 24 13 40 -5 109 -119 22 -36 61 -97 86 -137 52 -79 54 -88 31
-115 -13 -14 -14 -21 -5 -32 10 -11 24 -7 88 30 94 53 100 59 84 78 -10 11
-18 13 -31 6 -10 -6 -21 -10 -25 -10 -3 0 -28 35 -55 77 l-50 78 23 17 c30 23
64 22 77 -2 12 -23 38 -26 46 -6 3 7 -16 48 -43 89 -54 86 -78 96 -78 32 0
-33 -5 -41 -31 -57 l-30 -18 -42 66 c-23 36 -40 69 -38 73 3 4 27 17 54 30
l50 24 30 -22 c32 -22 62 -28 62 -11 0 20 -65 110 -80 109 -8 0 -69 -32 -135
-70z"/>
<path d="M3489 1584 c-11 -13 -9 -19 11 -35 l25 -18 -21 -38 c-11 -21 -49 -90
-85 -153 -60 -107 -64 -119 -64 -176 0 -53 4 -67 25 -89 56 -60 156 -83 219
-50 42 21 71 60 152 202 40 70 77 131 83 136 6 4 21 5 32 2 13 -3 27 2 34 10
16 19 20 15 -67 58 -63 32 -73 35 -84 21 -11 -13 -9 -19 10 -34 l24 -17 -43
-79 c-123 -226 -147 -254 -210 -254 -40 0 -85 28 -95 59 -8 27 22 100 94 226
77 134 82 140 108 126 20 -10 43 1 43 21 0 4 -40 28 -89 53 -79 39 -91 43
-102 29z"/>
<path d="M6033 1465 c-55 -26 -71 -38 -67 -50 5 -11 16 -15 38 -13 31 3 32 1
99 -135 38 -76 71 -155 74 -177 5 -35 2 -43 -30 -75 -46 -46 -87 -48 -127 -5
-26 28 -137 242 -155 299 -5 17 -2 26 14 37 25 18 27 32 6 40 -25 10 -186 -66
-183 -85 3 -11 13 -15 36 -13 32 2 32 1 107 -150 77 -156 100 -190 147 -214
60 -31 155 -6 213 55 27 29 30 39 29 94 0 55 -8 77 -67 201 -37 76 -67 145
-67 152 0 7 10 20 22 28 18 13 19 18 8 31 -16 19 -11 20 -97 -20z"/>
<path d="M3915 1373 c-3 -10 -1 -19 5 -21 6 -2 17 -10 25 -18 12 -12 11 -23
-10 -77 -13 -34 -44 -116 -70 -182 -25 -66 -50 -124 -56 -130 -5 -5 -22 -10
-37 -10 -17 0 -28 -6 -30 -16 -2 -13 18 -24 89 -48 50 -17 96 -28 100 -25 16
9 10 31 -12 46 l-21 14 25 69 c41 114 37 107 66 100 40 -10 52 -25 49 -59 -2
-25 1 -31 15 -31 14 0 27 21 53 84 18 46 31 88 28 92 -10 17 -32 9 -49 -17
-14 -22 -22 -25 -48 -20 -17 4 -35 10 -40 15 -12 12 42 151 57 151 6 -1 31
-11 56 -23 40 -20 46 -26 50 -62 7 -56 30 -52 53 9 10 27 17 56 15 64 -2 10
-55 33 -148 64 -79 26 -147 48 -151 48 -4 0 -10 -8 -14 -17z"/>
<path d="M5565 1294 c-150 -33 -196 -47 -193 -63 2 -9 14 -18 28 -19 14 -2 28
-7 32 -11 9 -8 98 -357 98 -382 0 -11 -10 -21 -25 -25 -27 -7 -29 -12 -15 -34
13 -22 203 24 198 48 -2 10 -16 19 -33 22 -28 5 -32 11 -51 80 -12 41 -20 78
-17 83 2 4 15 7 29 7 68 0 124 64 124 141 0 92 -90 171 -175 153z"/>
<path d="M4260 1270 c0 -11 7 -20 15 -20 30 0 33 -31 10 -119 -13 -47 -35
-134 -50 -193 -27 -106 -28 -107 -59 -110 -23 -2 -31 -8 -31 -22 0 -16 15 -22
90 -38 49 -10 96 -16 102 -13 14 5 18 35 5 35 -5 0 -16 6 -26 13 -17 12 -17
17 3 96 12 46 21 86 21 88 0 8 64 -9 78 -20 7 -5 11 -21 10 -36 -2 -20 1 -26
16 -26 16 0 23 14 37 70 23 92 24 115 1 115 -9 0 -22 -10 -27 -22 -8 -19 -17
-23 -49 -21 -22 2 -41 5 -43 7 -3 2 4 37 14 78 18 72 19 73 48 70 17 -2 44
-10 62 -17 27 -11 32 -19 35 -52 2 -30 7 -38 22 -38 16 0 22 12 32 60 6 33 9
64 5 68 -8 8 -278 67 -306 67 -8 0 -15 -9 -15 -20z"/>
<path d="M5126 1224 c-77 -8 -144 -18 -149 -23 -13 -13 0 -31 22 -31 10 0 23
-6 28 -12 6 -7 16 -85 22 -173 7 -88 14 -172 16 -187 6 -38 -3 -58 -26 -58
-22 0 -37 -26 -23 -40 9 -8 179 2 288 18 50 7 50 7 63 57 27 106 2 146 -38 60
-12 -25 -26 -48 -31 -51 -6 -4 -37 -10 -70 -13 -71 -9 -74 -5 -79 104 l-4 70
53 3 c51 3 53 2 63 -27 7 -20 18 -31 30 -31 19 0 20 5 13 88 -6 85 -21 121
-43 108 -6 -4 -11 -17 -11 -29 0 -39 -14 -48 -66 -45 l-49 3 0 75 0 75 65 0
c64 0 65 -1 79 -32 9 -21 22 -33 34 -33 18 0 19 5 13 62 -4 34 -10 66 -12 70
-6 10 -12 9 -188 -8z"/>
<path d="M4630 1200 c0 -13 7 -20 20 -20 10 0 23 -8 28 -17 8 -17 -11 -337
-23 -390 -4 -17 -13 -23 -31 -23 -26 0 -43 -25 -28 -40 10 -9 321 -28 334 -20
13 8 61 141 54 151 -12 20 -35 7 -54 -31 -25 -50 -58 -64 -127 -55 l-53 6 0
42 c1 63 26 347 32 352 4 4 38 12 61 14 4 1 7 9 7 20 0 15 -11 19 -77 25 -127
10 -143 9 -143 -14z"/>
</g>
</svg>
