<?xml version="1.0" standalone="no"?>
<!DOCTYPE svg PUBLIC "-//W3C//DTD SVG 20010904//EN"
 "http://www.w3.org/TR/2001/REC-SVG-20010904/DTD/svg10.dtd">
<svg version="1.0" xmlns="http://www.w3.org/2000/svg"
 width="894.000000pt" height="683.000000pt" viewBox="0 0 894.000000 683.000000"
 preserveAspectRatio="xMidYMid meet">
<metadata>
Created by potrace 1.16, written by Peter Selinger 2001-2019
</metadata>
<g transform="translate(0.000000,683.000000) scale(0.100000,-0.100000)"
fill="#000000" stroke="none">
<path d="M4531 4786 c-28 -8 -62 -9 -95 -5 -157 23 -272 0 -398 -78 -21 -13
-66 -27 -102 -32 -84 -12 -138 -37 -211 -98 -33 -27 -87 -66 -120 -87 -64 -41
-127 -55 -255 -56 -53 0 -72 -5 -102 -25 -29 -19 -48 -24 -90 -23 -29 1 -114
-3 -189 -9 -181 -15 -335 -66 -483 -161 -336 -216 -596 -607 -596 -897 0 -113
19 -120 105 -39 108 102 185 136 312 135 199 0 355 -98 695 -434 227 -225 249
-237 413 -237 l101 0 22 -39 c12 -21 22 -41 22 -45 0 -3 -125 -6 -279 -6
l-278 0 -6 45 c-9 60 -38 115 -82 153 -47 42 -75 48 -133 27 l-48 -17 -49 31
c-58 37 -83 36 -145 -5 -39 -26 -42 -27 -94 -14 -65 15 -92 10 -137 -30 -30
-26 -39 -29 -76 -24 -24 3 -54 3 -68 0 -35 -9 -102 -72 -125 -117 -11 -20 -27
-39 -36 -43 -9 -3 -91 -13 -183 -22 -91 -9 -168 -18 -170 -20 -11 -11 19 -14
185 -19 255 -8 241 -4 259 -73 28 -101 45 -138 88 -195 23 -30 50 -69 59 -86
22 -39 44 -48 67 -27 10 9 22 16 27 16 16 -1 47 -52 68 -114 22 -63 35 -73 80
-62 13 3 35 24 50 46 28 43 49 48 54 14 6 -36 24 -74 36 -74 19 1 109 133 123
183 8 26 18 47 21 47 4 0 19 -28 34 -61 l27 -61 40 32 c79 62 103 119 121 285
6 55 16 105 21 110 6 6 250 11 679 13 l670 3 69 -65 c38 -36 81 -68 95 -72 33
-8 96 31 122 75 9 16 28 34 41 40 26 12 1146 26 1194 15 25 -5 27 -11 37 -98
15 -119 34 -172 80 -219 20 -20 45 -56 57 -80 27 -57 51 -59 92 -11 31 38 33
38 47 19 8 -11 27 -50 41 -87 21 -52 31 -68 47 -68 32 0 57 19 78 60 11 21 24
41 28 44 5 3 20 -15 32 -40 13 -25 27 -47 30 -49 3 -2 31 24 62 59 38 42 60
77 68 107 19 77 19 76 46 41 14 -18 29 -32 33 -32 4 0 30 28 57 63 41 52 52
77 71 151 12 51 30 98 42 109 17 17 47 22 239 36 121 9 224 19 228 24 4 4 3 7
-2 7 -5 0 -83 7 -174 15 -91 8 -175 15 -187 15 -15 0 -35 17 -63 54 -63 86
-101 111 -177 113 -52 1 -71 7 -110 32 -53 35 -72 37 -133 16 -42 -15 -45 -15
-82 10 -77 51 -100 50 -183 -9 -18 -13 -25 -12 -67 6 -57 24 -84 20 -133 -24
-44 -38 -71 -88 -80 -151 l-7 -47 -194 0 c-223 0 -212 -6 -163 96 l31 64 42
-8 c81 -14 147 -6 217 27 86 40 114 63 289 234 204 200 320 284 474 344 62 25
84 28 181 28 139 0 180 -18 282 -122 113 -114 137 -98 108 73 -77 451 -426
827 -895 965 -63 18 -111 23 -290 28 -195 6 -218 8 -250 27 -24 15 -60 23
-116 28 -122 9 -224 47 -343 126 -92 61 -207 115 -296 140 -44 12 -118 38
-164 57 -96 40 -203 51 -280 29z m129 -55 c0 -16 -109 -91 -132 -91 -13 1 -34
7 -48 15 -39 22 -160 17 -160 -6 0 -5 20 -9 43 -9 24 0 66 -7 93 -15 66 -20
96 -19 127 5 46 36 110 60 165 60 28 0 52 -3 51 -7 0 -5 -45 -30 -100 -57 -54
-26 -99 -52 -99 -56 0 -4 23 -1 52 6 102 27 264 10 297 -30 8 -10 -13 -12
-102 -8 -120 5 -136 -7 -35 -26 73 -14 170 -53 176 -71 3 -10 -3 -12 -24 -7
-48 10 -245 26 -314 26 -102 0 -103 -16 -2 -23 86 -6 182 -35 182 -55 0 -11
-168 -32 -252 -32 -35 0 -101 9 -148 20 -47 11 -98 20 -115 20 -82 0 -452
-116 -432 -136 2 -2 48 9 101 26 179 55 225 59 636 57 361 -3 377 -3 435 -25
33 -12 63 -26 67 -30 4 -4 -50 -6 -120 -4 -90 3 -154 -1 -222 -13 -151 -27
-200 -31 -280 -24 -41 4 -112 10 -157 14 -103 10 -110 -5 -15 -30 154 -40 187
-39 377 6 89 21 196 25 244 8 44 -15 39 -26 -16 -34 -57 -8 -183 -56 -183 -68
0 -5 10 -7 23 -3 12 3 58 11 103 18 105 15 194 1 290 -46 66 -33 205 -147 194
-159 -3 -3 -48 16 -100 42 -145 74 -140 74 -140 2 0 -56 -3 -64 -37 -102 -36
-40 -90 -75 -100 -65 -5 5 7 64 23 119 11 37 -14 13 -76 -73 -36 -49 -68 -90
-71 -90 -8 0 -19 38 -19 68 0 45 -25 16 -44 -51 -10 -37 -23 -67 -27 -67 -5 0
-9 5 -9 11 0 6 -6 9 -14 6 -21 -8 -39 53 -40 135 0 37 -4 68 -8 68 -4 0 -17
-32 -29 -71 -18 -61 -21 -86 -15 -163 3 -50 9 -103 12 -118 9 -40 -9 -34 -33
10 -24 42 -63 185 -63 231 0 17 -4 31 -10 31 -6 0 -10 -83 -10 -229 0 -219 1
-229 22 -256 l22 -28 -27 -19 c-34 -25 -34 -42 -2 -56 29 -14 30 -18 9 -67
-14 -35 -14 -39 0 -47 13 -7 16 -27 16 -91 0 -89 12 -126 31 -94 13 23 50 57
62 57 5 0 7 -3 5 -7 -33 -64 -40 -96 -47 -228 -10 -156 -26 -206 -82 -248 -34
-25 -51 -16 -139 68 -86 83 -152 102 -187 56 -19 -26 -28 -3 -28 69 0 62 3 72
29 99 20 20 40 31 58 31 15 0 28 5 28 10 0 6 -17 10 -37 10 -52 0 -102 -35
-215 -152 l-94 -96 -64 -4 c-89 -4 -140 2 -140 17 0 7 11 29 25 50 15 20 25
38 23 40 -2 1 -32 8 -68 15 -71 13 -113 31 -147 63 -31 28 -29 10 7 -70 34
-74 37 -91 14 -72 -24 20 -91 147 -115 217 -22 65 -39 73 -39 19 l0 -32 -36
43 c-50 59 -68 68 -94 42 -24 -24 -25 -20 42 -99 21 -24 38 -49 38 -56 0 -22
-64 -27 -116 -9 -80 27 -122 60 -249 193 -174 182 -418 380 -516 419 -44 17
-183 51 -216 52 -4 0 0 6 11 12 26 15 150 11 219 -7 32 -8 60 -15 62 -15 2 0
1 22 -2 49 -7 62 10 74 33 24 21 -44 118 -143 140 -143 9 0 13 6 10 13 -51
123 -60 260 -20 314 36 47 49 37 46 -33 -5 -80 13 -164 50 -238 31 -60 120
-156 146 -156 10 0 12 4 5 13 -124 159 -138 182 -159 262 -16 59 -18 135 -4
135 6 0 10 -15 10 -34 0 -49 36 -154 68 -201 15 -22 49 -53 74 -70 43 -27 49
-37 74 -108 29 -87 67 -138 125 -168 48 -24 79 -24 132 1 l41 20 34 -35 c36
-37 52 -44 52 -22 0 14 -87 105 -150 156 -83 68 -98 142 -54 252 29 70 29 132
0 187 -28 55 -267 347 -314 384 -63 50 -159 82 -226 75 -123 -13 -288 -107
-434 -251 -112 -109 -161 -180 -239 -346 -104 -221 -119 -239 -84 -98 34 132
105 268 208 395 162 201 333 329 541 407 123 45 207 60 303 53 46 -4 81 -2 84
3 8 13 76 13 108 1 21 -8 29 -5 55 25 33 37 48 41 77 20 18 -13 18 -19 7 -90
-9 -53 -10 -81 -3 -93 10 -17 10 -17 11 0 0 10 7 50 16 89 19 83 47 118 95
118 l32 0 -6 -67 c-4 -45 -2 -63 4 -53 5 8 24 40 42 70 18 30 55 72 84 95 200
154 235 175 300 175 26 0 73 18 152 58 l114 57 181 2 c99 1 197 6 216 11 46
13 70 14 70 3z m1230 -419 c19 2 82 3 140 2 242 -1 510 -116 719 -310 64 -59
161 -173 161 -188 0 -3 -35 29 -78 72 -134 134 -354 266 -509 306 -78 20 -188
20 -265 0 -33 -8 -63 -13 -65 -10 -3 3 1 16 10 30 51 77 -78 5 -180 -102 -89
-92 -99 -90 -57 9 26 62 27 82 4 54 -20 -25 -30 -17 -30 23 0 47 16 103 32
114 7 5 29 6 48 3 19 -3 51 -5 70 -3z m-648 -598 c25 -8 56 -27 69 -41 27 -29
25 -29 -61 2 -59 22 -129 16 -200 -17 -73 -33 -121 -76 -172 -154 -22 -35 -43
-62 -46 -60 -8 9 55 132 86 167 88 100 215 141 324 103z m128 -283 c5 -45 5
-92 1 -104 -14 -35 -93 -102 -144 -122 -60 -23 -225 -18 -275 9 -53 27 -74 70
-70 141 4 58 34 125 58 125 5 0 14 -24 20 -53 25 -108 94 -172 186 -171 67 1
126 34 164 93 26 39 30 54 30 115 0 94 18 75 30 -33z m61 -128 c-29 -57 -88
-113 -149 -141 -49 -22 -63 -24 -141 -19 -97 6 -278 49 -300 72 -21 21 -7 19
103 -15 133 -40 180 -45 255 -26 83 21 143 58 193 117 49 58 66 63 39 12z
m-2781 -466 c25 -19 50 -60 50 -80 0 -16 -5 -18 -33 -13 -42 8 -47 3 -37 -37
20 -78 22 -134 5 -151 -14 -13 -15 -19 -5 -32 11 -12 10 -17 -6 -29 -18 -14
-18 -16 -1 -29 20 -16 22 -36 3 -36 -8 0 -12 -8 -9 -23 3 -13 -8 -50 -22 -82
-23 -51 -28 -57 -35 -40 -5 11 -9 85 -9 165 -1 87 -7 173 -16 215 -21 100 -20
119 16 154 32 33 72 40 99 18z m3665 -14 c26 -26 26 -28 7 -31 -14 -2 -18 -9
-15 -23 4 -15 0 -19 -21 -19 -24 0 -25 -2 -14 -26 9 -19 9 -42 0 -95 -7 -38
-12 -81 -12 -96 0 -14 -8 -32 -17 -38 -17 -13 -17 -14 0 -33 18 -20 18 -20 -2
-27 -23 -7 -28 -21 -9 -27 13 -5 2 -73 -23 -133 l-11 -30 -15 35 c-13 29 -14
72 -10 245 3 116 9 222 13 238 8 36 57 87 82 87 10 0 32 -12 47 -27z m-3452
-13 c29 -15 61 -62 50 -74 -4 -3 -17 -6 -29 -6 -32 0 -35 -10 -18 -60 8 -24
14 -59 12 -79 -3 -34 -6 -36 -42 -41 l-39 -5 27 -14 c18 -10 25 -20 20 -30 -3
-9 -8 -29 -10 -46 -5 -41 -36 -125 -46 -125 -4 0 -10 10 -12 23 -10 48 -21
413 -14 429 8 17 57 48 68 44 3 -1 18 -8 33 -16z m3227 -5 c0 -2 3 -10 6 -19
5 -12 -1 -16 -22 -16 -26 -1 -27 -2 -11 -14 24 -18 22 -22 -15 -35 -29 -10
-30 -12 -16 -29 32 -36 33 -142 2 -142 -19 0 -18 -17 1 -28 14 -7 13 -11 -5
-27 -24 -22 -26 -40 -4 -31 15 6 16 -2 10 -66 -9 -90 -20 -104 -41 -54 -36 86
-48 385 -17 421 34 40 76 64 94 54 10 -5 18 -11 18 -14z m-3660 -1 c59 -40 69
-84 19 -84 -31 0 -32 0 -25 -42 19 -114 24 -193 13 -200 -7 -4 -7 -11 3 -23 8
-10 10 -19 4 -23 -5 -4 -10 -30 -11 -59 -2 -71 -38 -136 -57 -104 -3 5 -10 73
-16 152 -5 79 -19 185 -31 236 -12 50 -19 99 -16 107 7 17 64 56 82 56 6 0 22
-7 35 -16z m4121 -20 c13 -16 12 -17 -13 -10 -30 7 -40 -10 -12 -21 13 -5 11
-10 -12 -34 -26 -28 -57 -137 -56 -199 0 -13 -7 -30 -16 -38 -13 -10 -14 -15
-4 -18 18 -8 15 -34 -5 -34 -15 0 -15 -1 1 -13 15 -11 16 -19 7 -53 -5 -21
-13 -51 -16 -66 -3 -19 -12 -28 -24 -28 -28 0 -37 168 -17 315 19 138 30 176
58 202 39 36 77 35 109 -3z m-4284 -65 c24 -21 15 -47 -22 -59 -39 -13 -42
-24 -24 -97 10 -36 9 -47 -1 -53 -9 -6 -13 -27 -11 -63 4 -112 -39 -65 -58 63
-11 71 -21 99 -51 146 -11 18 -10 25 6 49 27 42 70 57 113 39 19 -8 40 -19 48
-25z m4453 26 c37 -19 39 -35 5 -35 -25 0 -33 -14 -15 -25 16 -10 1 -25 -25
-25 -25 0 -24 4 -37 -155 -4 -38 -38 -125 -49 -125 -16 0 -21 50 -17 167 4
130 14 161 64 193 35 24 37 24 74 5z"/>
<path d="M3526 4123 c-22 -35 -55 -115 -83 -203 -25 -80 -49 -148 -52 -152 -4
-5 -12 36 -19 90 -12 94 -50 196 -97 256 -24 32 -27 12 -6 -42 11 -28 17 -53
12 -56 -4 -3 -36 13 -72 34 -35 22 -67 39 -71 40 -4 0 31 -75 78 -167 71 -140
88 -183 102 -255 13 -71 18 -85 29 -76 11 9 15 7 20 -10 11 -42 21 -21 43 96
36 184 88 361 126 430 46 81 38 92 -10 15z"/>
<path d="M4015 4161 c-126 -35 -289 -126 -356 -198 -49 -54 -108 -161 -124
-226 -11 -43 1 -32 40 39 85 151 148 218 257 272 87 43 180 63 323 71 l120 6
-50 18 c-58 21 -166 30 -210 18z"/>
<path d="M4343 3976 c3 -7 9 -49 12 -93 6 -69 4 -86 -13 -126 -12 -26 -25 -47
-30 -47 -6 0 -13 24 -17 53 -4 28 -11 70 -17 92 -10 38 -12 39 -19 15 -4 -14
-7 -51 -8 -82 -1 -31 -5 -59 -9 -62 -12 -7 -54 39 -92 102 -17 28 -36 52 -42
52 -12 0 -2 -50 24 -109 10 -24 17 -45 15 -48 -2 -2 -35 11 -73 28 -58 27 -82
32 -149 33 -69 1 -87 -3 -134 -27 -30 -16 -75 -51 -102 -79 -47 -49 -134 -199
-127 -220 2 -6 23 16 47 48 108 146 179 194 296 202 58 4 80 0 122 -18 28 -12
61 -33 74 -46 28 -30 25 -30 -46 2 -50 23 -67 26 -134 22 -105 -6 -164 -39
-249 -138 -35 -41 -71 -88 -80 -103 -20 -33 -57 -45 -84 -28 -25 16 -33 8 -19
-17 15 -29 14 -32 -11 -32 -19 0 -16 -5 19 -35 22 -19 46 -48 53 -65 13 -31
26 -38 32 -19 2 6 22 -15 45 -47 113 -161 227 -219 356 -183 63 17 66 4 7 -29
-120 -69 -243 -79 -341 -29 -27 15 -49 22 -49 18 0 -14 80 -82 114 -96 67 -28
118 -28 199 -1 136 46 240 128 325 255 53 80 57 84 60 57 l4 -28 26 38 c14 22
37 48 51 59 57 46 58 47 36 42 -11 -3 -28 -8 -37 -12 -32 -13 -20 14 29 66
l46 50 -41 -7 c-39 -6 -42 -5 -42 16 0 15 17 40 46 67 25 25 44 47 41 50 -3 3
-22 0 -41 -7 -39 -13 -76 -6 -76 14 0 7 23 27 51 44 36 23 55 44 69 74 28 64
45 200 35 283 l-8 70 -9 -55 c-34 -217 -41 -247 -61 -277 -28 -41 -52 -53 -42
-21 32 102 36 128 31 189 -5 66 -39 159 -58 159 -6 0 -8 -6 -5 -14z m-535
-660 c9 -16 34 -42 54 -59 31 -25 46 -30 90 -30 30 0 67 7 84 16 30 15 77 64
100 103 18 30 23 13 15 -51 -7 -50 -13 -63 -42 -87 -42 -36 -115 -60 -183 -60
-75 -1 -175 56 -224 127 -46 68 -38 132 26 198 l37 38 13 -83 c7 -45 20 -96
30 -112z m-178 -40 c85 -109 205 -162 345 -153 86 5 146 24 210 67 69 45 68
45 56 22 -40 -75 -174 -127 -326 -127 -88 0 -107 3 -157 27 -65 30 -127 90
-169 163 -51 88 -28 89 41 1z"/>
</g>
</svg>
